<svg width="413" height="413" viewBox="0 0 413 413" fill="none" xmlns="http://www.w3.org/2000/svg">
<circle cx="206.5" cy="206.5" r="199" fill="#C4C4C4" stroke="#C88719" stroke-width="15"/>
<path d="M206.506 398.842C155.495 398.842 106.574 378.578 70.5037 342.508C34.4337 306.438 14.1697 257.517 14.1697 206.506C14.1697 155.495 34.4337 106.574 70.5037 70.5037C106.574 34.4336 155.495 14.1697 206.506 14.1697L206.506 206.506L206.506 398.842Z" fill="#E74C3C"/>
<path d="M206.494 14.079C257.505 14.1 306.418 34.384 342.473 70.4689C378.528 106.554 398.772 155.483 398.751 206.494C398.73 257.505 378.446 306.418 342.361 342.473C306.277 378.528 257.347 398.772 206.336 398.751L206.415 206.415L206.494 14.079Z" fill="#21242B"/>
<path d="M206.5 166C217.297 168.337 222.875 196.589 224.599 205.004C230.208 232.369 241.265 279.056 268 306.691C256.498 314.79 238.315 312.275 224.415 298.315C230.032 313.386 212.914 332.09 206.5 336C200.079 332.09 182.968 313.386 188.585 298.315C174.677 312.275 156.494 314.782 145 306.691C171.742 279.056 182.8 232.369 188.401 205.004C190.125 196.597 195.696 168.345 206.5 166V166Z" fill="white"/>
<path d="M206 141.097C206 141.097 246.578 126.822 206.349 77.0982C165.579 126.381 206 141.097 206 141.097Z" fill="white"/>
<path d="M223 162.09C223 162.09 249.049 196.399 284 143.334C224.591 119.282 223 162.09 223 162.09Z" fill="white"/>
<path d="M190 162.09C190 162.09 163.951 196.399 129 143.334C188.409 119.282 190 162.09 190 162.09Z" fill="white"/>
</svg>
